<svg xmlns="http://www.w3.org/2000/svg" viewBox="0 0 36 24">
  <rect width="36" height="24" fill="#B22234"/>
  <rect y="1.85" width="36" height="1.85" fill="white"/>
  <rect y="5.54" width="36" height="1.85" fill="white"/>
  <rect y="9.23" width="36" height="1.85" fill="white"/>
  <rect y="12.92" width="36" height="1.85" fill="white"/>
  <rect y="16.62" width="36" height="1.85" fill="white"/>
  <rect y="20.31" width="36" height="1.85" fill="white"/>
  <rect width="14.4" height="12.92" fill="#3C3B6E"/>
  <g fill="white" font-size="2">
    <circle cx="2.4" cy="1.5" r="0.6"/><circle cx="4.8" cy="1.5" r="0.6"/><circle cx="7.2" cy="1.5" r="0.6"/><circle cx="9.6" cy="1.5" r="0.6"/><circle cx="12" cy="1.5" r="0.6"/>
    <circle cx="3.6" cy="3" r="0.6"/><circle cx="6" cy="3" r="0.6"/><circle cx="8.4" cy="3" r="0.6"/><circle cx="10.8" cy="3" r="0.6"/>
    <circle cx="2.4" cy="4.5" r="0.6"/><circle cx="4.8" cy="4.5" r="0.6"/><circle cx="7.2" cy="4.5" r="0.6"/><circle cx="9.6" cy="4.5" r="0.6"/><circle cx="12" cy="4.5" r="0.6"/>
    <circle cx="3.6" cy="6" r="0.6"/><circle cx="6" cy="6" r="0.6"/><circle cx="8.4" cy="6" r="0.6"/><circle cx="10.8" cy="6" r="0.6"/>
    <circle cx="2.4" cy="7.5" r="0.6"/><circle cx="4.8" cy="7.5" r="0.6"/><circle cx="7.2" cy="7.5" r="0.6"/><circle cx="9.6" cy="7.5" r="0.6"/><circle cx="12" cy="7.5" r="0.6"/>
    <circle cx="3.6" cy="9" r="0.6"/><circle cx="6" cy="9" r="0.6"/><circle cx="8.4" cy="9" r="0.6"/><circle cx="10.8" cy="9" r="0.6"/>
    <circle cx="2.4" cy="10.5" r="0.6"/><circle cx="4.8" cy="10.5" r="0.6"/><circle cx="7.2" cy="10.5" r="0.6"/><circle cx="9.6" cy="10.5" r="0.6"/><circle cx="12" cy="10.5" r="0.6"/>
  </g>
</svg>
